<svg xmlns="http://www.w3.org/2000/svg" width="1440" height="720" viewBox="0 0 1200 600">
  <defs>
    <style>
      .cls-1, .cls-2 {
        fill: #fff;
      }

      .cls-1 {
        fill-rule: evenodd;
      }

      .cls-2 {
        stroke: #fff;
        stroke-width: 1px;
      }
    </style>
  </defs>
  <path id="BURSARY_BANK" data-name="BURSARY BANK" class="cls-1" d="M95.29,292.763q15.766,0,24.312-7.222T131.4,265.3a126.353,126.353,0,0,0,3.255-30.416q0-16.173-4.12-27.415t-16.225-14.292A21.557,21.557,0,0,0,128.1,182.9q4.525-7.833,4.527-20.447V154.62q0-21.87-8.9-31.382T95.29,113.727H46.767V292.763H95.29ZM81.761,141.4h7.528q7.629,0,7.629,8.647v18a26.842,26.842,0,0,1-1.424,9.257q-1.426,3.867-6.409,3.866H81.761V141.4Zm0,119.629v-51.88h6.612q6.306,0,8.6,4.425t2.289,12.054V248q0,13.226-13.936,13.224-1.323,0-3.56-.2h0Zm136.975,20.8q10.578-12.562,10.579-36.977V113.727h-34.79v129.7a79.028,79.028,0,0,1-.458,8.647,14.273,14.273,0,0,1-2.288,6.765q-1.832,2.594-6,2.594-4.07,0-5.9-2.645a14.937,14.937,0,0,1-2.34-6.765,69.955,69.955,0,0,1-.509-8.6v-129.7h-34.79V244.851q0,24.414,10.58,36.977t32.959,12.563Q208.154,294.391,218.736,281.828Zm58.443,10.935V211.078q7.119,0,10.325,1.882t3.2,9.714v70.089h35.3V225.014q0-10.578-3.408-17.242t-11.851-8.393q10.273-3.357,13.987-12.1t3.713-23.4a128.258,128.258,0,0,0-2.39-26.4q-2.391-11.239-9.41-17.5T295.9,113.727H240.965V292.763h36.214Zm0.2-145.874h8.342q4.474,0,6.1,3.255t1.628,13.733q0,16.174-7.426,16.175h-8.647V146.889ZM413.086,280.1q9.308-14.291,9.308-39.52,0-12.512-3.154-21.21A54.158,54.158,0,0,0,410.9,204.11a119.462,119.462,0,0,0-11.393-12.462l-20.651-19.836q-6-5.7-8.036-10.071a19.4,19.4,0,0,1-2.034-8.138,9.32,9.32,0,0,1,1.983-6.154q1.985-2.39,6.256-2.391a7.742,7.742,0,0,1,5.646,2.035,7.6,7.6,0,0,1,2.085,5.7V165.1h36.418q0-26.752-10.325-39.876T375.905,112.1q-20.14,0-30.772,12T334.5,158.994q0,21.873,18,38.859l16.073,15.259a118.64,118.64,0,0,1,11.139,11.75,30.9,30.9,0,0,1,5.646,10.579,49.739,49.739,0,0,1,1.627,13.784q0,6.512-1.882,9.358t-6.764,2.849q-4.68,0-6.562-3.51t-1.882-9.715V225.828H334.5v17.5q0,26.652,10.834,38.859t35.349,12.207Q403.777,294.391,413.086,280.1Zm49.033,12.665,2.238-28.89h21.566l2.543,28.89h33.875L505.353,113.727h-60.73L427.329,292.763h34.79Zm11.6-148.519h1.628l7.833,91.044H466.9Zm93.742,148.519V211.078q7.119,0,10.325,1.882t3.2,9.714v70.089h35.3V225.014q0-10.578-3.408-17.242t-11.851-8.393q10.273-3.357,13.988-12.1t3.713-23.4a128.253,128.253,0,0,0-2.391-26.4q-2.391-11.239-9.41-17.5t-20.752-6.256H531.244V292.763h36.214Zm0.2-145.874H576q4.474,0,6.1,3.255t1.628,13.733q0,16.174-7.426,16.175h-8.647V146.889ZM683.885,292.763v-58.9l28.483-120.137h-35.4L667,174.355l-9.969-60.628h-35.5l28.585,120.137v58.9h33.773Zm130.721,0q15.766,0,24.312-7.222t11.8-20.244a126.3,126.3,0,0,0,3.255-30.416q0-16.173-4.12-27.415t-16.225-14.292A21.559,21.559,0,0,0,847.412,182.9q4.525-7.833,4.527-20.447V154.62q0-21.87-8.9-31.382t-28.432-9.511H766.083V292.763h48.523ZM801.076,141.4H808.6q7.629,0,7.629,8.647v18a26.838,26.838,0,0,1-1.424,9.257q-1.425,3.867-6.409,3.866h-7.324V141.4Zm0,119.629v-51.88h6.612q6.306,0,8.6,4.425t2.289,12.054V248q0,13.226-13.937,13.224-1.323,0-3.56-.2h0ZM893.6,292.763l2.238-28.89H917.4l2.543,28.89h33.875L936.83,113.727H876.1L858.807,292.763H893.6Zm11.6-148.519h1.628l7.832,91.044H898.378Zm92.521,148.519V203.245l17.9,89.518h34.99V113.727h-34.58v85.754l-16.484-85.754H962.722V292.763h34.993Zm102.285,0v-86.67l19.53,86.67h37.13l-24.21-97.046,20.04-81.99h-36.01l-16.68,71.716V113.727h-35.4V292.763H1100Z"/>
  <rect class="cls-2" x="51" y="316" width="900" height="27"/>
  <rect class="cls-2" x="51" y="352" width="800" height="27"/>
  <rect class="cls-2" x="51" y="388" width="700" height="27"/>
</svg>
